<svg width="2328" height="2328" viewBox="0 0 2328 2328" fill="none" xmlns="http://www.w3.org/2000/svg">
<g clip-path="url(#clip0_1405_56)">
<path d="M1166.1 924.026C1164.95 924.702 1163.81 925.446 1162.65 926.201C1160.79 927.352 1158.96 928.571 1157.15 929.857C1156.45 930.333 1155.73 930.854 1155.06 931.396C1154.93 931.477 1154.81 931.559 1154.69 931.64L1154.67 931.685C1153.25 932.682 1151.91 933.688 1150.71 934.68C1150.64 934.704 1150.61 934.716 1150.59 934.762C1150.55 934.773 1150.53 934.819 1150.5 934.831C1150.43 934.855 1150.38 934.912 1150.32 934.97C1148.32 936.552 1146.57 938.005 1144.99 939.399L1144.84 939.526C1143.82 940.379 1142.81 941.233 1141.88 942.129C1140.17 943.683 1138.39 945.373 1136.5 947.291C1135.74 948.015 1134.94 948.831 1134 949.806C1132.17 951.779 1129.74 954.383 1127.28 957.336C1127.07 957.599 1126.86 957.862 1126.62 958.137C1126.07 958.824 1125.52 959.51 1124.89 960.299C1123.48 962.05 1122.15 963.844 1120.71 965.831C1119.99 966.802 1119.27 967.852 1118.59 968.811L1073.24 947.299C1060.83 941.405 1045.98 946.691 1040.06 959.112C1034.16 971.52 1039.46 986.404 1051.87 992.298L1097.27 1013.83C1096.95 1014.96 1096.59 1016.07 1096.28 1017.21C1095.94 1018.38 1095.65 1019.58 1095.38 1020.74L1095.28 1021.19C1094.61 1023.88 1094.02 1026.58 1093.55 1029.28C1093.38 1030.29 1093.21 1031.29 1093.04 1032.3L1092.88 1033.14C1092.09 1038.34 1091.53 1043.67 1091.23 1048.88C1091.17 1049.96 1091.14 1051.06 1091.11 1052.13C1091.1 1052.32 1091.08 1052.48 1091.07 1052.67C1091.08 1053.31 1091.06 1054 1091.04 1054.5C1091.02 1056.43 1091 1058.4 1091.05 1060.35C1091.08 1062.03 1091.13 1063.76 1091.24 1065.45L1091.25 1065.49C1091.25 1065.68 1091.25 1065.9 1091.28 1066.08L1091.41 1068.38C1091.4 1068.45 1091.43 1068.75 1091.46 1068.81C1091.54 1070.22 1091.66 1071.61 1091.8 1072.96C1091.84 1073.29 1091.89 1073.64 1091.9 1073.98C1091.97 1074.6 1092.04 1075.22 1092.12 1075.87C1092.25 1076.88 1092.38 1077.89 1092.53 1078.93C1066.19 1075.39 1038.5 1067 1012.28 1054.55C934.414 1017.56 900.646 958.881 926.241 905.052C936.28 883.916 952.814 868.929 974.435 861.233C977.787 860.039 981.311 859.011 984.907 858.185C1016.26 850.877 1054.83 857.468 1096.46 877.244C1122.69 889.701 1146.7 905.815 1166.1 924.026Z" fill="#6E78FF"/>
<path d="M1567.82 1209.78C1556.23 1234.19 1535.94 1250.4 1509.14 1256.62C1477.79 1263.93 1439.22 1257.33 1397.59 1237.56C1371.86 1225.34 1349.04 1210.16 1329.7 1192.42C1329.13 1191.87 1328.55 1191.32 1327.98 1190.76C1328.69 1190.32 1329.34 1189.82 1330.05 1189.38C1331.88 1188.24 1333.69 1187.07 1335.45 1185.87C1336.57 1185.1 1337.68 1184.29 1338.77 1183.52C1340.55 1182.25 1342.23 1180.93 1343.93 1179.57C1344.98 1178.78 1346.01 1177.96 1346.99 1177.12C1348.81 1175.64 1350.55 1174.08 1352.29 1172.48C1353.12 1171.73 1353.96 1171.02 1354.74 1170.25C1357.26 1167.88 1359.71 1165.42 1362.04 1162.85C1366.88 1157.54 1371.35 1151.87 1375.43 1145.92L1419.53 1166.9C1425.75 1169.82 1432.57 1170 1438.57 1167.86C1444.57 1165.73 1449.75 1161.28 1452.72 1155.09C1458.6 1142.64 1453.31 1127.79 1440.91 1121.9L1396.8 1100.93C1398.8 1094.02 1400.42 1086.99 1401.43 1079.86C1401.46 1079.85 1401.46 1079.85 1401.46 1079.85C1401.94 1076.32 1402.36 1072.81 1402.6 1069.25C1402.71 1068.08 1402.71 1066.91 1402.78 1065.71C1402.89 1063.37 1403.03 1061.02 1403.02 1058.64C1403.04 1057.23 1402.99 1055.82 1402.95 1054.43C1402.91 1052.3 1402.87 1050.16 1402.76 1048.04C1402.64 1046.54 1402.48 1045.05 1402.36 1043.54C1402.17 1041.53 1401.98 1039.48 1401.72 1037.5C1401.64 1036.96 1401.64 1036.43 1401.57 1035.89C1402.28 1035.98 1402.95 1036.08 1403.66 1036.16C1403.78 1036.16 1403.87 1036.21 1403.98 1036.2C1429.88 1039.9 1456.07 1047.99 1481.82 1060.28C1523.44 1080.02 1552.92 1105.75 1567.06 1134.67C1579.14 1159.37 1579.4 1185.34 1567.82 1209.78Z" fill="#6E78FF"/>
<path d="M1610.75 525.693L1392.64 984.831C1392.01 984.754 1391.37 984.756 1390.75 984.712C1389.86 984.651 1389 984.579 1388.12 984.551C1387.04 984.483 1385.95 984.382 1384.88 984.347C1384.38 983.356 1383.82 982.422 1383.29 981.476C1382.89 980.786 1382.54 980.118 1382.15 979.428C1381.15 977.704 1380.12 975.958 1379.06 974.257C1378.91 974.046 1378.79 973.824 1378.63 973.579C1377.42 971.668 1376.14 969.781 1374.85 967.939C1374.45 967.361 1374.02 966.796 1373.63 966.219C1372.69 964.966 1371.78 963.668 1370.81 962.427C1370.31 961.773 1369.77 961.098 1369.22 960.422C1368.37 959.291 1367.45 958.185 1366.54 957.111C1365.99 956.436 1365.4 955.739 1364.83 955.075C1363.88 954.014 1362.94 952.952 1361.96 951.903C1361.4 951.273 1360.83 950.643 1360.22 949.991C1359.2 948.92 1358.13 947.828 1357.04 946.781C1356.51 946.251 1355.97 945.688 1355.44 945.159C1353.95 943.726 1352.42 942.271 1350.83 940.908C1350.72 940.797 1350.59 940.654 1350.48 940.544C1348.78 939.07 1347.05 937.608 1345.3 936.191C1344.72 935.719 1344.15 935.281 1343.58 934.842C1342.36 933.876 1341.16 932.944 1339.9 932.036C1339.21 931.487 1338.51 931.017 1337.81 930.513C1336.64 929.682 1335.48 928.85 1334.29 928.064C1333.55 927.572 1332.8 927.047 1332.02 926.568C1330.85 925.815 1329.63 925.04 1328.42 924.3C1327.65 923.854 1326.93 923.396 1326.16 922.95C1324.82 922.144 1323.5 921.406 1322.13 920.645C1321.48 920.31 1320.82 919.94 1320.16 919.571C1318.12 918.487 1316.09 917.47 1314 916.477C1311.91 915.484 1309.8 914.536 1307.71 913.656C1306.99 913.344 1306.3 913.099 1305.6 912.82C1304.15 912.242 1302.73 911.652 1301.29 911.107C1300.46 910.797 1299.61 910.533 1298.78 910.223C1297.44 909.755 1296.11 909.287 1294.75 908.865C1293.9 908.6 1293.04 908.303 1292.15 908.05C1290.81 907.661 1289.46 907.272 1288.11 906.883C1287.24 906.664 1286.39 906.4 1285.52 906.181C1284.07 905.828 1282.67 905.496 1281.24 905.176C1280.46 905.001 1279.66 904.792 1278.85 904.628C1276.86 904.241 1274.87 903.853 1272.86 903.511C1272.19 903.412 1271.54 903.302 1270.9 903.191C1269.15 902.945 1267.4 902.699 1265.66 902.486C1264.71 902.371 1263.73 902.267 1262.8 902.184C1261.5 902.042 1260.25 901.921 1258.98 901.845C1257.92 901.731 1256.85 901.697 1255.76 901.629C1254.6 901.551 1253.45 901.507 1252.27 901.474C1251.16 901.418 1250.05 901.395 1248.92 901.385C1247.81 901.362 1246.69 901.385 1245.6 901.395C1244.43 901.397 1243.27 901.431 1242.11 901.466C1241.02 901.477 1239.95 901.555 1238.87 901.599C1237.69 901.679 1236.53 901.714 1235.35 901.794C1234.28 901.872 1233.24 902.017 1232.17 902.095C1229.98 902.308 1227.77 902.566 1225.58 902.892C1224.54 903.037 1223.45 903.16 1222.42 903.339C1221.24 903.531 1220.11 903.745 1218.94 903.972C1218.16 904.1 1217.34 904.24 1216.55 904.369C1216.2 904.005 1215.87 903.628 1215.51 903.231C1215.51 903.231 1215.49 903.197 1215.46 903.209C1215.38 903.087 1215.26 902.977 1215.18 902.855L1426.87 457.103C1431.14 457.512 1435.34 457.979 1439.54 458.524C1440.3 458.632 1441.02 458.753 1441.78 458.861C1445.56 459.404 1449.34 459.946 1453.08 460.58C1454.68 460.84 1456.23 461.158 1457.83 461.418C1460.75 461.967 1463.66 462.515 1466.55 463.11C1468.31 463.468 1470.02 463.838 1471.79 464.23C1474.54 464.839 1477.28 465.447 1480.02 466.135C1481.75 466.539 1483.49 466.976 1485.23 467.414C1488.03 468.156 1490.84 468.932 1493.64 469.708C1495.24 470.16 1496.82 470.578 1498.38 471.042C1501.8 472.053 1505.17 473.121 1508.59 474.245C1509.48 474.531 1510.41 474.805 1511.35 475.112C1515.6 476.546 1519.84 478.058 1524.03 479.628C1525.33 480.108 1526.58 480.645 1527.88 481.125C1530.82 482.27 1533.77 483.448 1536.69 484.639C1538.25 485.327 1539.86 486.004 1541.42 486.692C1544.01 487.81 1546.61 488.962 1549.22 490.147C1550.85 490.891 1552.48 491.668 1554.09 492.457C1556.67 493.654 1559.19 494.909 1561.73 496.197C1563.28 496.964 1564.84 497.732 1566.38 498.545C1569.12 499.986 1571.87 501.461 1574.57 502.993C1575.83 503.677 1577.13 504.348 1578.4 505.065C1582.33 507.293 1586.22 509.612 1590.08 511.976C1590.71 512.357 1591.31 512.784 1591.94 513.165C1595.19 515.181 1598.41 517.243 1601.63 519.384C1602.96 520.268 1604.31 521.186 1605.62 522.117C1607.36 523.274 1609.04 524.49 1610.75 525.693Z" fill="#FFDE83"/>
<path d="M1372.48 455.581L1176.61 867.903C1158.75 854.354 1138.88 842.241 1117.84 832.245C1065.93 807.59 1016.05 799.776 973.606 809.671C932.126 819.3 899.334 845.589 881.243 883.679C849.658 950.177 871.303 1042.71 990.903 1099.55C1011.95 1109.54 1033.88 1117.26 1055.66 1122.53L827.823 1602.28C616.849 1481.44 482.038 1345.26 426.971 1197.25C372.023 1049.57 411.765 885.555 528.181 779.38C538.337 770.137 539.064 754.355 529.788 744.212C528.798 743.129 527.698 742.161 526.555 741.283C526.086 740.921 525.606 740.526 525.07 740.188C524.522 739.816 523.943 739.569 523.374 739.243C523.585 739.093 523.762 738.954 523.994 738.758C538.716 727.701 562.918 711.231 594.507 695.567C594.607 695.532 594.708 695.496 594.796 695.426C594.966 696.008 595.101 696.602 595.304 697.172L595.412 697.474C595.579 697.943 595.767 698.367 595.968 698.824C596.417 699.873 596.899 700.91 597.504 701.865C598.342 703.266 599.303 704.586 600.374 705.791C601.491 707.018 602.705 708.096 603.997 709.072C605.3 710.081 606.724 710.896 608.19 711.621C609.644 712.311 611.197 712.854 612.781 713.272C614.353 713.657 615.978 713.871 617.601 713.974C619.212 714.042 620.854 713.987 622.47 713.751C624.086 713.516 625.687 713.135 627.229 712.586C628.738 712.049 630.22 711.333 631.655 710.482C633.022 709.655 634.33 708.661 635.569 707.578C636.762 706.473 637.852 705.292 638.827 704.001C639.825 702.664 640.652 701.274 641.376 699.808C642.055 698.32 642.61 696.8 643.016 695.183C643.4 693.611 643.661 692.007 643.717 690.363C643.82 688.74 643.73 687.11 643.495 685.494C643.26 683.879 642.879 682.277 642.342 680.768C642.151 680.232 641.926 679.708 641.702 679.183C641.465 678.625 641.196 678.079 640.904 677.579C640.634 677.033 640.276 676.556 639.939 676.034L640.307 675.903C661.165 668.289 682.548 662.151 703.888 657.803C704 657.801 704.147 657.787 704.247 657.751C704.237 658.359 704.227 658.967 704.25 659.563C704.273 660.159 704.33 660.743 704.399 661.36C704.437 661.573 704.43 661.765 704.468 661.978C706.409 675.601 719.024 685.047 732.648 683.106C820.346 670.585 910.703 689.296 987.037 735.887C993.452 739.797 1001.3 740.629 1008.37 738.111L1008.71 737.992C1015.84 735.304 1021.4 729.508 1023.73 722.259C1060.09 609.116 1144.5 520.605 1255.34 479.412C1293.36 465.273 1332.64 457.299 1372.48 455.581Z" fill="#F57070"/>
<path d="M1723.74 605.35C1723.74 605.35 1723.74 605.35 1723.76 605.383C1723.27 605.708 1722.78 606.033 1722.3 606.392C1721.84 606.784 1721.41 607.164 1720.95 607.59C1712.51 615.503 1710.48 628.464 1716.74 638.736C1729.58 659.736 1740.48 682.182 1749.14 705.46C1825.47 910.646 1771.48 1195.72 1588.72 1552.76L1588.46 1553.19C1587.82 1554.25 1587.19 1555.35 1586.6 1556.46C1584.94 1559.66 1583 1562.88 1580.99 1566.28L1577.96 1571.44C1574.22 1577.9 1570.65 1584.01 1566.87 1589.73C1564.2 1593.78 1561.32 1597.79 1558.22 1602.03L1556.64 1604.18C1552.91 1609.28 1548.52 1615.22 1544.03 1620.75C1540.64 1624.91 1537.02 1629.06 1532.88 1633.67C1527.9 1639.3 1523.07 1644.42 1518.04 1649.38C1513.89 1653.54 1510.18 1657.12 1506.75 1660.31C1501.66 1664.99 1496.19 1669.7 1489.49 1675.18L1488.14 1676.26C1484.69 1679.08 1481.44 1681.74 1478.04 1684.28C1471.53 1689.24 1464.43 1693.99 1458.39 1698.03C1457.03 1698.89 1455.72 1699.78 1454.38 1700.67C1452.1 1702.23 1449.75 1703.79 1447.37 1705.28C1439.68 1709.98 1431.58 1714.3 1424.1 1718.21C1422.44 1719.06 1420.82 1719.94 1419.19 1720.86C1417.71 1721.69 1416.23 1722.52 1414.75 1723.24C1403.41 1728.74 1391.99 1733.68 1380.8 1737.89L1380.49 1738C1369.61 1742.02 1358.03 1745.65 1345 1749.16C1343.38 1749.59 1341.72 1749.91 1340.07 1750.27C1338.34 1750.62 1336.63 1751 1335.06 1751.37C1326.69 1753.33 1317.68 1755.37 1308.87 1756.84C1306.26 1757.25 1303.65 1757.57 1301.04 1757.86C1299.26 1758.07 1297.45 1758.3 1295.91 1758.51C1288.5 1759.45 1279.95 1760.49 1271.61 1761.04C1268.11 1761.27 1264.63 1761.37 1261.11 1761.46L1257.3 1761.57C1248.58 1761.8 1241.3 1761.82 1234.26 1761.57C1229.84 1761.45 1225.06 1761.18 1218.7 1760.73C1212.12 1760.28 1205.01 1759.52 1197.11 1758.52C1192.15 1757.87 1186.3 1757.04 1180.42 1756C1173.31 1754.79 1166.07 1753.14 1159.73 1751.66C1153.39 1750.21 1148.13 1748.99 1142.78 1747.45C1136.52 1745.68 1130.12 1743.5 1123.37 1741.18L1117.53 1739.22C1113.45 1737.84 1109.63 1736.55 1105.84 1735.03C1104.8 1734.65 1103.72 1734.28 1102.62 1733.95L1102.15 1733.78C1099.32 1732.63 1096.53 1731.47 1093.71 1730.33L1281.5 1334.89C1287.39 1322.48 1282.11 1307.63 1269.68 1301.71C1269.5 1301.62 1269.29 1301.54 1269.11 1301.46L1300.51 1233.06C1322.44 1252.45 1347.89 1269.11 1376.21 1282.56C1428.12 1307.21 1478 1315.03 1520.41 1305.14C1525.85 1303.88 1531.16 1302.34 1536.28 1300.51C1570.24 1288.42 1597.1 1264.25 1612.82 1231.16C1630.91 1193.07 1630.52 1151.02 1611.81 1112.77C1592.66 1073.62 1555.09 1039.9 1503.19 1015.28C1483.59 1005.94 1463.63 998.69 1443.65 993.49L1659.76 538.612L1661.36 535.248C1661.52 535.38 1661.64 535.49 1661.8 535.622C1678.33 551.303 1702.49 576.091 1723.74 605.35Z" fill="#F57070"/>
<path d="M1350.01 1031.43C1350.39 1032.92 1350.67 1034.44 1350.98 1035.96C1351.14 1036.73 1351.36 1037.45 1351.47 1038.2C1353.58 1049.53 1353.81 1061.2 1352.15 1072.67C1350.64 1083.06 1347.55 1093.27 1342.95 1102.95C1338.34 1112.6 1332.43 1121.46 1325.33 1129.2C1312.77 1142.85 1296.75 1153.01 1279.04 1158.63C1253.26 1166.75 1225.7 1164.89 1201.48 1153.38C1199.97 1152.63 1198.45 1151.89 1196.98 1151.13C1174.86 1139.29 1157.7 1120.05 1148.25 1096.37C1147.8 1095.21 1147.38 1094.04 1146.98 1092.9C1146.45 1091.43 1145.96 1089.94 1145.51 1088.47L1145.32 1087.94C1144.92 1086.49 1144.52 1085.05 1144.14 1083.56C1144.1 1083.43 1144.08 1083.28 1144.03 1083.15L1143.99 1083.01C1143.65 1081.74 1143.38 1080.47 1143.1 1079.14C1142.66 1077.17 1142.34 1075.21 1142.03 1073.28C1141.85 1072.14 1141.72 1071.02 1141.58 1069.89C1141.56 1069.71 1141.53 1069.53 1141.52 1069.39L1141.45 1069C1141.44 1068.74 1141.41 1068.44 1141.38 1068.15C1141.26 1067.06 1141.17 1065.96 1141.1 1064.93L1141.04 1063.7C1141.01 1063.41 1141.02 1063.11 1140.99 1062.81C1140.92 1061.67 1140.88 1060.59 1140.85 1059.46C1140.86 1059.27 1140.85 1059.13 1140.85 1058.93C1140.8 1057.71 1140.85 1056.48 1140.85 1055.01L1140.87 1054.85C1140.87 1054.51 1140.9 1054.2 1140.9 1053.86C1140.92 1053.17 1140.94 1052.48 1140.98 1051.64C1141.17 1048.06 1141.55 1044.45 1142.07 1041.13L1142.22 1040.28C1142.31 1039.68 1142.4 1039.08 1142.52 1038.47C1142.54 1038.32 1142.56 1038.16 1142.61 1037.99C1142.91 1036.37 1143.23 1034.75 1143.67 1033L1143.83 1032.27C1143.94 1031.85 1144.03 1031.37 1144.18 1030.93C1144.24 1030.69 1144.32 1030.47 1144.35 1030.23C1146.02 1024.01 1148.27 1017.81 1151.1 1011.85C1153.47 1006.85 1156.29 1001.92 1159.57 997.131C1160.09 996.377 1160.64 995.578 1161.05 995.019C1161.97 993.785 1162.89 992.551 1163.82 991.35C1164.35 990.709 1164.84 990.08 1165.38 989.473C1165.46 989.37 1165.57 989.255 1165.64 989.152C1166.88 987.653 1168.31 986.048 1170.07 984.178C1170.47 983.731 1170.89 983.318 1171.31 982.904C1171.46 982.777 1171.59 982.617 1171.73 982.49C1172.93 981.307 1174.1 980.135 1175.34 979.052C1175.65 978.754 1175.88 978.558 1176.19 978.259C1176.48 978.005 1176.77 977.752 1177.06 977.498L1177.61 977.037C1178.9 975.897 1180.22 974.823 1181.52 973.796C1182.28 973.184 1183.09 972.593 1183.87 972.015C1184.06 971.91 1184.23 971.771 1184.41 971.633C1184.53 971.551 1184.62 971.482 1184.74 971.401C1185.01 971.193 1185.27 970.985 1185.52 970.822C1185.7 970.684 1185.87 970.545 1186.06 970.44C1187.12 969.687 1188.18 968.968 1189.27 968.315C1189.29 968.27 1189.57 968.096 1189.64 968.072C1190.7 967.352 1191.82 966.655 1192.82 966.072C1194.56 965.035 1196.35 964.019 1198.32 963.057C1199.46 962.46 1200.61 961.863 1201.78 961.332L1201.91 961.285C1202.05 961.237 1202.17 961.156 1202.3 961.108C1203.66 960.473 1205.04 959.871 1206.41 959.269L1207.01 959.055C1208.42 958.441 1209.86 957.928 1211.33 957.403C1212.44 957.009 1213.55 956.615 1214.66 956.255L1215 956.136C1239.14 948.524 1264.87 949.714 1288.04 959.408C1289.56 960.075 1291.08 960.742 1292.63 961.476C1295.66 962.889 1298.61 964.484 1301.48 966.181C1318.6 976.403 1332.48 991.214 1341.59 1009.05C1343.1 1012.02 1344.49 1015.08 1345.72 1018.23C1347.44 1022.52 1348.87 1026.96 1350.01 1031.43Z" fill="#C5BDD3"/>
<path d="M1795.85 688.118C1786.08 661.835 1773.76 636.458 1759.28 612.757C1752.07 601.007 1736.78 597.309 1725.02 604.48C1724.59 604.748 1724.18 605.082 1723.76 605.383C1723.27 605.708 1722.78 606.033 1722.3 606.392C1721.84 606.784 1721.41 607.164 1720.95 607.59C1712.51 615.503 1710.48 628.464 1716.74 638.736C1729.58 659.736 1740.48 682.182 1749.14 705.46C1825.47 910.646 1771.48 1195.72 1588.72 1552.76L1588.46 1553.19C1587.82 1554.25 1587.19 1555.35 1586.6 1556.46C1584.94 1559.66 1583 1562.88 1580.99 1566.28L1577.96 1571.44C1574.22 1577.9 1570.65 1584.01 1566.87 1589.73C1564.2 1593.78 1561.32 1597.79 1558.22 1602.03L1556.64 1604.18C1552.91 1609.28 1548.52 1615.22 1544.03 1620.75C1540.64 1624.91 1537.02 1629.06 1532.88 1633.67C1527.9 1639.3 1523.07 1644.42 1518.04 1649.38C1513.89 1653.54 1510.18 1657.12 1506.75 1660.31C1501.66 1664.99 1496.19 1669.7 1489.49 1675.18L1488.14 1676.26C1484.69 1679.08 1481.44 1681.74 1478.04 1684.28C1471.53 1689.24 1464.43 1693.99 1458.39 1698.03C1457.03 1698.89 1455.72 1699.78 1454.38 1700.67C1452.1 1702.23 1449.75 1703.79 1447.37 1705.28C1439.68 1709.98 1431.58 1714.3 1424.1 1718.21C1422.44 1719.06 1420.82 1719.94 1419.19 1720.86C1417.71 1721.69 1416.23 1722.52 1414.75 1723.24C1403.41 1728.74 1391.99 1733.68 1380.8 1737.89L1380.49 1738C1369.61 1742.02 1358.03 1745.65 1345 1749.16C1343.38 1749.59 1341.72 1749.91 1340.07 1750.27C1338.34 1750.62 1336.63 1751 1335.06 1751.37C1326.69 1753.33 1317.68 1755.37 1308.87 1756.84C1306.26 1757.25 1303.65 1757.57 1301.04 1757.86C1299.26 1758.07 1297.45 1758.3 1295.91 1758.51C1288.5 1759.45 1279.95 1760.49 1271.61 1761.04C1268.11 1761.27 1264.63 1761.37 1261.11 1761.46L1257.3 1761.57C1248.58 1761.8 1241.3 1761.82 1234.26 1761.57C1229.84 1761.45 1225.06 1761.18 1218.7 1760.73C1212.12 1760.28 1205.01 1759.52 1197.11 1758.52C1192.15 1757.87 1186.3 1757.04 1180.42 1756C1173.31 1754.79 1166.07 1753.14 1159.73 1751.66C1153.39 1750.21 1148.13 1748.99 1142.78 1747.45C1136.52 1745.68 1130.12 1743.5 1123.37 1741.18L1117.53 1739.22C1113.45 1737.84 1109.63 1736.55 1105.84 1735.03C1104.8 1734.65 1103.72 1734.28 1102.62 1733.95L1102.15 1733.78C1099.32 1732.63 1096.53 1731.47 1093.71 1730.33L1281.5 1334.89C1287.39 1322.48 1282.11 1307.63 1269.68 1301.71C1269.5 1301.62 1269.29 1301.54 1269.11 1301.46C1268.57 1301.23 1268.03 1300.97 1267.47 1300.79C1266.9 1300.58 1266.31 1300.49 1265.72 1300.32C1254.26 1297.11 1241.79 1302.38 1236.5 1313.52L1047.73 1711C1046.22 1710.36 1044.72 1709.73 1043.24 1709.09C1040.33 1707.82 1037.43 1706.55 1034.52 1705.28C1028.4 1702.62 1022.33 1699.91 1016.28 1697.23C1013.23 1695.86 1010.16 1694.46 1007.1 1693.09C1000.89 1690.28 994.712 1687.46 988.566 1684.62C986.033 1683.45 983.478 1682.32 980.978 1681.13C972.469 1677.17 964.026 1673.19 955.696 1669.2C954.378 1668.58 953.093 1667.94 951.763 1667.28C944.74 1663.89 937.749 1660.48 930.826 1657.06C928.121 1655.72 925.403 1654.34 922.697 1653C917.138 1650.22 911.645 1647.42 906.198 1644.64C903.344 1643.2 900.558 1641.73 897.749 1640.32C892.142 1637.4 886.568 1634.48 881.028 1631.54C878.707 1630.32 876.342 1629.09 874.055 1627.86C873.179 1627.42 872.325 1626.93 871.483 1626.48L1107.12 1130.32C1107.28 1130.34 1107.39 1130.33 1107.55 1130.35C1107.58 1130.34 1107.62 1130.36 1107.69 1130.34C1108.2 1130.38 1108.69 1130.4 1109.19 1130.41C1109.71 1131.43 1110.28 1132.4 1110.81 1133.38C1111.19 1134 1111.54 1134.67 1111.89 1135.34C1112.94 1137.12 1113.99 1138.9 1115.1 1140.65C1115.21 1140.84 1115.31 1141.03 1115.44 1141.18C1116.66 1143.12 1117.94 1145.01 1119.25 1146.88C1119.63 1147.43 1120.06 1147.99 1120.44 1148.54C1121.35 1149.84 1122.3 1151.12 1123.27 1152.36C1123.78 1153.05 1124.31 1153.69 1124.82 1154.38C1125.71 1155.5 1126.63 1156.61 1127.56 1157.71C1128.1 1158.39 1128.68 1159.05 1129.25 1159.71C1130.21 1160.81 1131.15 1161.87 1132.09 1162.9C1132.7 1163.55 1133.26 1164.18 1133.86 1164.8C1134.89 1165.9 1135.96 1167 1137.05 1168.04C1137.58 1168.57 1138.12 1169.14 1138.65 1169.66C1140.14 1171.1 1141.67 1172.52 1143.23 1173.93C1143.37 1174.03 1143.5 1174.17 1143.61 1174.28C1145.31 1175.75 1147.04 1177.22 1148.79 1178.63C1149.37 1179.1 1149.94 1179.54 1150.52 1179.98C1151.73 1180.95 1152.93 1181.88 1154.21 1182.82C1154.88 1183.34 1155.59 1183.84 1156.3 1184.34C1157.45 1185.14 1158.62 1185.97 1159.8 1186.76C1160.56 1187.28 1161.3 1187.78 1162.07 1188.26C1163.26 1189.04 1164.47 1189.78 1165.68 1190.52C1166.4 1190.98 1167.18 1191.46 1167.94 1191.91C1169.28 1192.68 1170.6 1193.42 1171.96 1194.18C1172.62 1194.55 1173.28 1194.92 1173.93 1195.25C1175.98 1196.34 1178.01 1197.39 1180.1 1198.38C1182.2 1199.37 1184.3 1200.29 1186.4 1201.2C1187.1 1201.48 1187.76 1201.74 1188.46 1202.02C1189.88 1202.61 1191.37 1203.17 1192.81 1203.72C1193.63 1204.03 1194.4 1204.28 1195.22 1204.56C1196.6 1205.05 1197.99 1205.54 1199.35 1205.96C1200.19 1206.22 1201.01 1206.5 1201.86 1206.76C1203.25 1207.17 1204.64 1207.58 1206.06 1207.95C1206.86 1208.19 1207.66 1208.4 1208.48 1208.6C1210.02 1209 1211.59 1209.38 1213.15 1209.73C1213.8 1209.84 1214.46 1210.02 1215.11 1210.13C1219.56 1211.08 1224.05 1211.82 1228.56 1212.37C1229.22 1212.43 1229.92 1212.49 1230.59 1212.55C1232.15 1212.71 1233.75 1212.86 1235.35 1213.01C1236.17 1213.06 1236.93 1213.09 1237.74 1213.14C1239.24 1213.21 1240.74 1213.28 1242.24 1213.35C1243.04 1213.37 1243.87 1213.38 1244.67 1213.39C1246.19 1213.42 1247.7 1213.41 1249.21 1213.4C1249.99 1213.39 1250.78 1213.37 1251.53 1213.37C1253.21 1213.3 1254.92 1213.22 1256.58 1213.12C1257.17 1213.06 1257.76 1213.04 1258.36 1213.01C1260.67 1212.83 1262.98 1212.62 1265.26 1212.34C1265.29 1212.32 1265.33 1212.34 1265.37 1212.33C1267.58 1212.07 1269.8 1211.74 1272.01 1211.37C1272.7 1211.27 1273.4 1211.13 1274.07 1211.01C1275.21 1210.79 1276.35 1210.61 1277.48 1210.4C1277.91 1210.85 1278.38 1211.33 1278.81 1211.78C1280.68 1213.87 1282.66 1215.92 1284.62 1217.94C1285.48 1218.85 1286.33 1219.75 1287.2 1220.61C1290.08 1223.51 1293.02 1226.36 1296.05 1229.13C1296.6 1229.62 1297.16 1230.14 1297.71 1230.62C1298.16 1231.03 1298.6 1231.43 1299.1 1231.86C1299.54 1232.27 1300.03 1232.67 1300.51 1233.06C1322.44 1252.45 1347.9 1269.11 1376.21 1282.56C1428.12 1307.21 1478 1315.03 1520.41 1305.14C1525.85 1303.88 1531.16 1302.34 1536.28 1300.51C1570.24 1288.42 1597.1 1264.25 1612.82 1231.16C1630.91 1193.07 1630.52 1151.02 1611.81 1112.77C1592.66 1073.62 1555.09 1039.9 1503.19 1015.28C1483.59 1005.94 1463.63 998.69 1443.65 993.49L1659.76 538.612L1664.54 528.567C1664.58 528.476 1664.59 528.397 1664.63 528.306C1665.18 527.091 1665.67 525.82 1666.02 524.564C1666.01 524.53 1666.04 524.519 1666.04 524.519C1666.39 523.262 1666.59 522.02 1666.74 520.757C1666.78 520.553 1666.79 520.362 1666.8 520.17C1666.93 518.952 1666.93 517.782 1666.87 516.556C1666.87 516.331 1666.86 516.106 1666.82 515.893C1666.73 514.68 1666.57 513.49 1666.3 512.302C1666.25 512.168 1666.2 512.034 1666.19 511.888C1665.88 510.713 1665.51 509.561 1665.07 508.433L1664.98 508.165C1664.51 507.049 1663.89 505.948 1663.23 504.858C1663.14 504.702 1663.04 504.513 1662.94 504.357C1662.27 503.313 1661.51 502.338 1660.69 501.421C1660.55 501.243 1660.42 501.1 1660.26 500.968C1659.4 500.029 1658.47 499.113 1657.42 498.279C1643.74 487.549 1629.56 477.752 1614.93 468.797C1553.99 431.608 1485.14 410.075 1413.13 406.062L1413.09 406.074C1353.4 402.735 1294.47 411.624 1237.96 432.721C1122.22 475.735 1031.97 564.397 986.539 678.466C906.322 636.884 814.764 621.055 725.596 633.798C713.409 635.53 704.568 645.815 704.247 657.751C704.237 658.359 704.226 658.967 704.25 659.563C704.273 660.159 704.33 660.743 704.399 661.36C704.437 661.573 704.429 661.765 704.467 661.978C706.409 675.601 719.024 685.047 732.648 683.106C820.346 670.585 910.702 689.296 987.037 735.887C993.452 739.797 1001.3 740.629 1008.37 738.111L1008.71 737.992C1015.84 735.304 1021.4 729.508 1023.73 722.258C1060.09 609.116 1144.5 520.605 1255.34 479.412C1293.36 465.273 1332.64 457.299 1372.47 455.581L1176.61 867.903C1158.75 854.353 1138.88 842.241 1117.84 832.245C1065.93 807.59 1016.05 799.776 973.606 809.671C932.126 819.3 899.334 845.589 881.242 883.679C849.657 950.177 871.302 1042.71 990.903 1099.55C1011.95 1109.54 1033.88 1117.26 1055.66 1122.53L827.823 1602.28C616.849 1481.44 482.038 1345.26 426.971 1197.25C372.023 1049.57 411.765 885.555 528.181 779.38C538.336 770.137 539.064 754.355 529.788 744.212C528.798 743.129 527.698 742.161 526.555 741.283C526.086 740.921 525.606 740.526 525.07 740.188C524.522 739.816 523.943 739.569 523.374 739.243C514.269 734.25 502.708 735.193 494.608 742.571C431.421 800.188 386.965 874.667 366.016 957.888C344.591 1043.17 349.514 1131.91 380.279 1214.62C441.595 1379.45 591.835 1528.94 826.784 1658.89C835.207 1663.56 843.763 1668.18 852.387 1672.78C912.98 1705.07 979.407 1736.45 1050.3 1766.28L1050.34 1766.27C1061.27 1770.88 1072.37 1775.43 1083.55 1779.98C1084.84 1780.54 1086.16 1780.98 1087.48 1781.38L1087.99 1781.54C1092.7 1783.41 1097.21 1784.94 1101.61 1786.39L1107.26 1788.35C1114.35 1790.77 1121.71 1793.29 1129.21 1795.38C1135.64 1797.21 1141.83 1798.67 1148.49 1800.19C1155.36 1801.78 1163.55 1803.66 1171.87 1805.08C1178.56 1806.25 1185.05 1807.19 1190.63 1807.92C1199.61 1809.07 1207.65 1809.91 1215.16 1810.41C1222.18 1810.93 1227.65 1811.21 1232.72 1811.37C1240.56 1811.64 1249.01 1811.61 1258.79 1811.38L1262.56 1811.25C1266.56 1811.15 1270.71 1811.03 1274.95 1810.73C1284.58 1810.1 1294 1808.97 1302.31 1807.9C1303.87 1807.72 1305.46 1807.54 1307.04 1807.31C1310.23 1806.93 1313.45 1806.54 1316.85 1806.01C1327.26 1804.27 1337.22 1802.01 1346.54 1799.86C1347.8 1799.57 1349.05 1799.27 1350.32 1799.01C1352.88 1798.47 1355.48 1797.93 1357.92 1797.25C1370.55 1793.88 1382.09 1790.34 1392.95 1786.48C1394.56 1785.9 1396.16 1785.3 1397.74 1784.74L1398.1 1784.6C1410.79 1779.82 1423.74 1774.27 1436.64 1767.98C1438.89 1766.88 1441.11 1765.67 1443.31 1764.43C1444.51 1763.78 1445.71 1763.13 1447.05 1762.42C1455.43 1758.04 1464.43 1753.21 1473.37 1747.77C1476.37 1745.91 1479.27 1743.97 1482.2 1742.02C1483.36 1741.23 1484.54 1740.43 1485.83 1739.59C1492.62 1735.1 1500.51 1729.8 1508.03 1724.06C1512.15 1721.01 1516 1717.82 1519.72 1714.8L1521.01 1713.74C1528.35 1707.73 1534.71 1702.25 1540.49 1696.95C1544.46 1693.27 1548.66 1689.24 1553.26 1684.66C1558.94 1678.97 1564.46 1673.15 1570.01 1666.87C1574.56 1661.85 1578.62 1657.12 1582.6 1652.27C1587.9 1645.74 1592.8 1639.12 1596.88 1633.51L1598.49 1631.35C1601.76 1626.83 1605.16 1622.18 1608.45 1617.2C1613.03 1610.24 1617.1 1603.2 1621.06 1596.39C1621.97 1594.82 1622.9 1593.28 1623.81 1591.71C1626.1 1587.84 1628.49 1583.85 1630.76 1579.5C1630.81 1579.44 1630.86 1579.35 1630.88 1579.3L1631.16 1578.82C1631.76 1577.85 1632.31 1576.86 1632.92 1575.7C1822.44 1205.6 1877.26 906.976 1795.85 688.118ZM1481.82 1060.28C1523.44 1080.02 1552.92 1105.75 1567.06 1134.67C1579.14 1159.37 1579.4 1185.34 1567.82 1209.78C1556.23 1234.19 1535.94 1250.4 1509.14 1256.62C1477.79 1263.93 1439.22 1257.33 1397.59 1237.56C1371.86 1225.34 1349.04 1210.16 1329.7 1192.42C1329.13 1191.87 1328.55 1191.31 1327.98 1190.76C1328.69 1190.32 1329.34 1189.82 1330.05 1189.38C1331.88 1188.24 1333.69 1187.07 1335.45 1185.87C1336.57 1185.1 1337.68 1184.29 1338.77 1183.52C1340.55 1182.25 1342.23 1180.93 1343.93 1179.57C1344.98 1178.78 1346.01 1177.96 1346.99 1177.12C1348.81 1175.64 1350.55 1174.08 1352.29 1172.48C1353.12 1171.73 1353.96 1171.02 1354.74 1170.25C1357.26 1167.88 1359.71 1165.42 1362.04 1162.85C1366.88 1157.54 1371.35 1151.87 1375.43 1145.92L1419.53 1166.9C1425.75 1169.82 1432.57 1170 1438.57 1167.86C1444.57 1165.73 1449.75 1161.28 1452.72 1155.09C1458.6 1142.64 1453.31 1127.79 1440.91 1121.9L1396.8 1100.92C1398.8 1094.02 1400.42 1086.99 1401.43 1079.86C1401.46 1079.85 1401.46 1079.85 1401.46 1079.85C1401.94 1076.32 1402.36 1072.81 1402.6 1069.25C1402.71 1068.08 1402.71 1066.91 1402.78 1065.71C1402.89 1063.37 1403.03 1061.02 1403.02 1058.64C1403.04 1057.23 1402.99 1055.82 1402.95 1054.43C1402.91 1052.3 1402.87 1050.16 1402.76 1048.04C1402.64 1046.54 1402.48 1045.05 1402.36 1043.54C1402.17 1041.53 1401.98 1039.48 1401.72 1037.5C1401.64 1036.96 1401.64 1036.43 1401.57 1035.89C1402.28 1035.98 1402.95 1036.08 1403.66 1036.16C1403.78 1036.16 1403.87 1036.21 1403.98 1036.2C1429.88 1039.9 1456.07 1047.99 1481.82 1060.28ZM1426.87 457.103C1431.14 457.512 1435.34 457.979 1439.54 458.524C1440.3 458.633 1441.02 458.753 1441.78 458.861C1445.56 459.404 1449.34 459.947 1453.08 460.58C1454.68 460.84 1456.23 461.158 1457.83 461.418C1460.75 461.967 1463.66 462.515 1466.56 463.11C1468.31 463.468 1470.02 463.839 1471.79 464.231C1474.54 464.839 1477.28 465.447 1480.02 466.135C1481.75 466.539 1483.49 466.976 1485.23 467.414C1488.03 468.156 1490.84 468.932 1493.64 469.708C1495.24 470.16 1496.82 470.578 1498.38 471.042C1501.8 472.053 1505.17 473.122 1508.59 474.245C1509.48 474.531 1510.41 474.805 1511.35 475.112C1515.6 476.546 1519.84 478.058 1524.03 479.628C1525.33 480.108 1526.58 480.645 1527.88 481.125C1530.82 482.27 1533.77 483.448 1536.69 484.639C1538.25 485.327 1539.86 486.004 1541.42 486.692C1544.01 487.811 1546.61 488.962 1549.22 490.147C1550.85 490.891 1552.48 491.668 1554.09 492.457C1556.67 493.654 1559.19 494.909 1561.73 496.197C1563.28 496.964 1564.84 497.732 1566.38 498.545C1569.12 499.986 1571.87 501.461 1574.57 502.993C1575.83 503.677 1577.13 504.348 1578.4 505.065C1582.33 507.293 1586.22 509.612 1590.08 511.976C1590.71 512.357 1591.31 512.784 1591.94 513.165C1595.19 515.181 1598.41 517.243 1601.63 519.384C1602.96 520.268 1604.31 521.187 1605.62 522.117C1607.36 523.274 1609.04 524.49 1610.75 525.693L1392.64 984.832C1392.01 984.754 1391.37 984.756 1390.75 984.712C1389.86 984.651 1389 984.579 1388.12 984.552C1387.04 984.483 1385.95 984.382 1384.88 984.347C1384.38 983.356 1383.82 982.422 1383.29 981.476C1382.89 980.786 1382.54 980.118 1382.15 979.428C1381.16 977.704 1380.12 975.958 1379.06 974.257C1378.91 974.046 1378.79 973.824 1378.63 973.579C1377.42 971.668 1376.14 969.781 1374.85 967.939C1374.45 967.361 1374.02 966.796 1373.63 966.219C1372.69 964.966 1371.78 963.668 1370.81 962.427C1370.31 961.773 1369.77 961.098 1369.22 960.422C1368.37 959.291 1367.45 958.185 1366.54 957.111C1365.99 956.436 1365.41 955.739 1364.83 955.075C1363.88 954.014 1362.94 952.953 1361.96 951.903C1361.4 951.273 1360.83 950.643 1360.22 949.991C1359.2 948.92 1358.13 947.828 1357.04 946.781C1356.51 946.251 1355.97 945.688 1355.45 945.159C1353.95 943.726 1352.42 942.271 1350.83 940.908C1350.72 940.797 1350.59 940.654 1350.48 940.544C1348.78 939.07 1347.05 937.608 1345.3 936.192C1344.72 935.719 1344.15 935.281 1343.58 934.842C1342.36 933.876 1341.16 932.944 1339.9 932.036C1339.21 931.487 1338.51 931.017 1337.81 930.513C1336.64 929.682 1335.48 928.85 1334.29 928.064C1333.55 927.572 1332.8 927.047 1332.02 926.568C1330.85 925.815 1329.63 925.041 1328.42 924.3C1327.66 923.854 1326.93 923.396 1326.16 922.95C1324.82 922.144 1323.5 921.406 1322.13 920.645C1321.48 920.31 1320.82 919.94 1320.16 919.571C1318.12 918.487 1316.09 917.47 1314 916.477C1311.91 915.484 1309.8 914.536 1307.71 913.656C1306.99 913.344 1306.3 913.099 1305.6 912.82C1304.15 912.242 1302.73 911.652 1301.29 911.107C1300.46 910.797 1299.61 910.533 1298.78 910.223C1297.44 909.755 1296.11 909.287 1294.75 908.865C1293.9 908.6 1293.04 908.303 1292.15 908.05C1290.81 907.661 1289.46 907.272 1288.11 906.883C1287.24 906.664 1286.39 906.4 1285.52 906.181C1284.07 905.828 1282.67 905.496 1281.24 905.176C1280.46 905.001 1279.66 904.792 1278.85 904.628C1276.86 904.241 1274.87 903.853 1272.86 903.511C1272.19 903.412 1271.54 903.302 1270.9 903.191C1269.15 902.945 1267.4 902.699 1265.66 902.486C1264.71 902.371 1263.73 902.267 1262.8 902.184C1261.5 902.042 1260.25 901.921 1258.98 901.845C1257.92 901.732 1256.85 901.697 1255.76 901.629C1254.6 901.551 1253.45 901.507 1252.27 901.474C1251.16 901.418 1250.05 901.395 1248.92 901.385C1247.81 901.362 1246.69 901.385 1245.6 901.395C1244.43 901.397 1243.27 901.431 1242.11 901.466C1241.02 901.477 1239.95 901.555 1238.87 901.599C1237.69 901.679 1236.53 901.714 1235.35 901.794C1234.28 901.872 1233.24 902.017 1232.17 902.095C1229.98 902.308 1227.77 902.566 1225.58 902.892C1224.54 903.037 1223.45 903.16 1222.42 903.339C1221.24 903.531 1220.11 903.745 1218.94 903.972C1218.16 904.1 1217.34 904.24 1216.55 904.369C1216.2 904.005 1215.87 903.628 1215.51 903.231C1215.51 903.231 1215.49 903.197 1215.46 903.209C1215.38 903.087 1215.26 902.977 1215.18 902.855L1426.87 457.103ZM1184.41 971.633C1184.53 971.551 1184.62 971.482 1184.74 971.401C1185.01 971.193 1185.27 970.985 1185.52 970.822C1185.7 970.684 1185.87 970.545 1186.06 970.44C1187.12 969.687 1188.18 968.968 1189.27 968.316C1189.29 968.27 1189.57 968.096 1189.64 968.072C1190.7 967.353 1191.82 966.655 1192.82 966.072C1194.56 965.035 1196.35 964.02 1198.32 963.057C1199.46 962.46 1200.61 961.863 1201.78 961.333L1201.91 961.285C1202.05 961.237 1202.17 961.156 1202.3 961.108C1203.66 960.473 1205.04 959.871 1206.41 959.269L1207.01 959.055C1208.42 958.441 1209.86 957.928 1211.33 957.403C1212.44 957.009 1213.55 956.615 1214.67 956.255L1215 956.136C1239.14 948.524 1264.87 949.714 1288.04 959.408C1289.56 960.075 1291.08 960.742 1292.63 961.476C1295.66 962.889 1298.61 964.484 1301.48 966.181C1318.6 976.403 1332.48 991.214 1341.59 1009.05C1343.1 1012.02 1344.49 1015.08 1345.72 1018.23C1347.44 1022.52 1348.87 1026.96 1350.01 1031.43C1350.39 1032.92 1350.67 1034.45 1350.98 1035.96C1351.14 1036.73 1351.36 1037.45 1351.47 1038.2C1353.58 1049.53 1353.81 1061.2 1352.15 1072.67C1350.64 1083.06 1347.55 1093.27 1342.95 1102.95C1338.34 1112.6 1332.43 1121.46 1325.33 1129.2C1312.77 1142.85 1296.75 1153.01 1279.04 1158.63C1253.26 1166.75 1225.7 1164.89 1201.48 1153.38C1199.97 1152.63 1198.45 1151.89 1196.98 1151.13C1174.86 1139.29 1157.7 1120.05 1148.25 1096.37C1147.8 1095.21 1147.38 1094.04 1146.98 1092.9C1146.45 1091.43 1145.96 1089.94 1145.51 1088.47L1145.32 1087.94C1144.92 1086.49 1144.52 1085.05 1144.14 1083.56C1144.1 1083.43 1144.08 1083.28 1144.03 1083.15L1143.99 1083.01C1143.65 1081.74 1143.38 1080.47 1143.1 1079.14C1142.66 1077.18 1142.34 1075.21 1142.03 1073.28C1141.85 1072.14 1141.72 1071.02 1141.58 1069.89C1141.56 1069.71 1141.53 1069.53 1141.52 1069.39L1141.45 1069C1141.44 1068.74 1141.41 1068.44 1141.38 1068.15C1141.26 1067.06 1141.17 1065.96 1141.1 1064.93L1141.04 1063.7C1141.01 1063.41 1141.02 1063.11 1140.99 1062.81C1140.92 1061.67 1140.88 1060.59 1140.85 1059.46C1140.86 1059.27 1140.85 1059.13 1140.85 1058.93C1140.8 1057.71 1140.85 1056.48 1140.85 1055.01L1140.87 1054.85C1140.87 1054.51 1140.9 1054.2 1140.9 1053.86C1140.92 1053.17 1140.94 1052.48 1140.98 1051.64C1141.17 1048.06 1141.55 1044.45 1142.07 1041.13L1142.22 1040.28C1142.31 1039.68 1142.4 1039.08 1142.52 1038.47C1142.54 1038.32 1142.56 1038.16 1142.61 1037.99C1142.91 1036.37 1143.24 1034.75 1143.67 1033L1143.83 1032.27C1143.94 1031.85 1144.03 1031.37 1144.18 1030.93C1144.24 1030.69 1144.32 1030.47 1144.35 1030.23C1146.02 1024.01 1148.27 1017.81 1151.1 1011.85C1153.47 1006.85 1156.29 1001.92 1159.57 997.131C1160.09 996.377 1160.64 995.578 1161.05 995.019C1161.97 993.785 1162.89 992.551 1163.82 991.35C1164.35 990.709 1164.84 990.08 1165.38 989.473C1165.46 989.37 1165.57 989.255 1165.64 989.152C1166.88 987.653 1168.31 986.048 1170.07 984.179C1170.47 983.731 1170.89 983.318 1171.31 982.904C1171.46 982.777 1171.59 982.617 1171.73 982.491C1172.93 981.307 1174.1 980.135 1175.34 979.053C1175.65 978.754 1175.88 978.558 1176.19 978.259C1176.48 978.005 1176.77 977.752 1177.06 977.499L1177.61 977.037C1178.9 975.897 1180.22 974.824 1181.52 973.796C1182.28 973.184 1183.09 972.593 1183.87 972.015C1184.06 971.91 1184.23 971.771 1184.41 971.633ZM1012.28 1054.55C934.414 1017.56 900.646 958.881 926.241 905.052C936.28 883.916 952.814 868.929 974.435 861.232C977.787 860.039 981.311 859.011 984.907 858.185C1016.26 850.877 1054.83 857.468 1096.46 877.244C1122.69 889.701 1146.7 905.815 1166.1 924.026C1164.95 924.702 1163.81 925.445 1162.65 926.201C1160.79 927.352 1158.96 928.571 1157.15 929.857C1156.45 930.332 1155.73 930.853 1155.06 931.396C1154.93 931.477 1154.81 931.559 1154.69 931.64L1154.67 931.685C1153.25 932.682 1151.91 933.688 1150.71 934.68C1150.64 934.704 1150.61 934.716 1150.59 934.761C1150.55 934.773 1150.53 934.819 1150.5 934.831C1150.43 934.855 1150.38 934.912 1150.32 934.969C1148.32 936.552 1146.57 938.005 1144.99 939.399L1144.84 939.526C1143.82 940.379 1142.81 941.232 1141.88 942.129C1140.17 943.683 1138.39 945.373 1136.5 947.291C1135.74 948.015 1134.94 948.831 1134 949.806C1132.17 951.779 1129.74 954.383 1127.28 957.336C1127.07 957.599 1126.86 957.862 1126.62 958.137C1126.07 958.824 1125.52 959.51 1124.89 960.299C1123.48 962.05 1122.15 963.843 1120.71 965.831C1119.99 966.802 1119.27 967.852 1118.59 968.811L1073.24 947.298C1060.83 941.405 1045.98 946.691 1040.06 959.111C1034.16 971.52 1039.46 986.404 1051.87 992.297L1097.27 1013.83C1096.95 1014.96 1096.59 1016.07 1096.28 1017.21C1095.94 1018.38 1095.65 1019.58 1095.38 1020.73L1095.28 1021.19C1094.61 1023.88 1094.02 1026.58 1093.55 1029.28C1093.38 1030.29 1093.21 1031.29 1093.04 1032.3L1092.88 1033.14C1092.09 1038.34 1091.53 1043.67 1091.23 1048.88C1091.17 1049.96 1091.14 1051.06 1091.11 1052.13C1091.1 1052.32 1091.08 1052.48 1091.07 1052.67C1091.08 1053.31 1091.06 1054 1091.04 1054.5C1091.02 1056.43 1091 1058.4 1091.05 1060.35C1091.08 1062.03 1091.13 1063.76 1091.24 1065.45L1091.25 1065.49C1091.25 1065.68 1091.25 1065.9 1091.28 1066.08L1091.41 1068.38C1091.4 1068.45 1091.43 1068.75 1091.46 1068.81C1091.54 1070.22 1091.66 1071.61 1091.8 1072.96C1091.84 1073.28 1091.89 1073.64 1091.9 1073.98C1091.97 1074.6 1092.04 1075.22 1092.12 1075.87C1092.25 1076.88 1092.38 1077.89 1092.53 1078.93C1066.19 1075.39 1038.5 1067 1012.28 1054.55Z" fill="#48446D"/>
<path d="M642.341 680.768C642.878 682.277 643.259 683.878 643.495 685.494C643.73 687.11 643.819 688.74 643.717 690.363C643.66 692.007 643.4 693.611 643.015 695.183C642.609 696.8 642.055 698.32 641.376 699.808C640.651 701.274 639.824 702.664 638.827 704.001C637.851 705.292 636.761 706.473 635.568 707.578C634.33 708.661 633.022 709.655 631.654 710.482C630.22 711.332 628.737 712.049 627.229 712.586C625.687 713.135 624.085 713.516 622.469 713.751C620.853 713.987 619.211 714.042 617.601 713.974C615.978 713.871 614.353 713.657 612.781 713.272C611.197 712.854 609.644 712.311 608.19 711.62C606.723 710.896 605.3 710.081 603.996 709.072C602.705 708.096 601.49 707.018 600.374 705.791C599.303 704.586 598.342 703.266 597.503 701.865C596.899 700.91 596.416 699.873 595.967 698.824C595.767 698.367 595.578 697.943 595.411 697.473L595.304 697.172C595.101 696.602 594.965 696.008 594.796 695.426C594.553 694.531 594.388 693.645 594.246 692.714C594.011 691.098 593.921 689.468 593.99 687.857C594.092 686.235 594.34 684.598 594.725 683.026C595.11 681.453 595.686 679.889 596.377 678.434C597.056 676.946 597.916 675.545 598.892 674.253C599.855 672.928 600.979 671.735 602.172 670.63C603.377 669.559 604.685 668.565 606.086 667.726C608.888 666.049 612.006 664.939 615.271 664.457C616.854 664.234 618.496 664.178 620.14 664.235C621.762 664.337 623.354 664.564 624.938 664.982C626.544 665.354 628.063 665.909 629.563 666.621C633.881 668.672 637.437 671.977 639.938 676.034C640.275 676.556 640.634 677.033 640.904 677.579C641.195 678.079 641.465 678.625 641.701 679.183C641.926 679.708 642.15 680.232 642.341 680.768Z" fill="#48446D"/>
<path d="M1300.51 1233.06L1269.11 1301.46C1268.57 1301.23 1268.03 1300.97 1267.47 1300.79C1266.9 1300.58 1266.31 1300.49 1265.72 1300.32C1254.26 1297.11 1241.79 1302.38 1236.5 1313.52L1047.73 1711C1046.22 1710.36 1044.72 1709.73 1043.24 1709.09C1040.33 1707.82 1037.43 1706.55 1034.52 1705.28C1028.4 1702.62 1022.33 1699.91 1016.28 1697.23C1013.23 1695.86 1010.16 1694.46 1007.1 1693.09C1000.89 1690.28 994.712 1687.46 988.567 1684.62C986.033 1683.45 983.478 1682.32 980.978 1681.13C972.469 1677.17 964.026 1673.19 955.696 1669.2C954.378 1668.58 953.094 1667.94 951.763 1667.28C944.74 1663.89 937.749 1660.48 930.826 1657.06C928.121 1655.72 925.403 1654.34 922.698 1653C917.138 1650.22 911.645 1647.42 906.198 1644.64C903.345 1643.2 900.558 1641.73 897.749 1640.32C892.142 1637.4 886.568 1634.48 881.028 1631.54C878.708 1630.32 876.342 1629.09 874.055 1627.86C873.179 1627.42 872.325 1626.93 871.483 1626.48L1107.12 1130.32C1107.28 1130.34 1107.39 1130.33 1107.55 1130.35C1107.58 1130.34 1107.62 1130.36 1107.69 1130.34C1108.2 1130.38 1108.69 1130.4 1109.19 1130.41C1109.71 1131.43 1110.28 1132.4 1110.81 1133.38C1111.19 1134 1111.54 1134.67 1111.89 1135.34C1112.94 1137.12 1113.99 1138.9 1115.1 1140.65C1115.21 1140.84 1115.31 1141.03 1115.44 1141.18C1116.66 1143.12 1117.94 1145.01 1119.25 1146.88C1119.63 1147.43 1120.06 1147.99 1120.44 1148.54C1121.35 1149.84 1122.3 1151.12 1123.27 1152.36C1123.78 1153.05 1124.31 1153.69 1124.82 1154.38C1125.71 1155.5 1126.63 1156.61 1127.56 1157.71C1128.1 1158.39 1128.68 1159.05 1129.25 1159.71C1130.21 1160.81 1131.15 1161.87 1132.09 1162.9C1132.7 1163.55 1133.26 1164.18 1133.86 1164.8C1134.89 1165.9 1135.96 1167 1137.05 1168.04C1137.58 1168.57 1138.12 1169.14 1138.65 1169.66C1140.14 1171.1 1141.67 1172.52 1143.23 1173.93C1143.37 1174.03 1143.5 1174.17 1143.61 1174.28C1145.31 1175.75 1147.04 1177.22 1148.79 1178.63C1149.37 1179.1 1149.94 1179.54 1150.52 1179.98C1151.73 1180.95 1152.93 1181.88 1154.21 1182.82C1154.88 1183.34 1155.59 1183.84 1156.3 1184.34C1157.45 1185.14 1158.62 1185.97 1159.8 1186.76C1160.56 1187.28 1161.3 1187.78 1162.07 1188.26C1163.26 1189.04 1164.47 1189.78 1165.68 1190.52C1166.4 1190.98 1167.18 1191.46 1167.94 1191.91C1169.28 1192.68 1170.6 1193.42 1171.96 1194.18C1172.62 1194.55 1173.28 1194.92 1173.93 1195.25C1175.98 1196.34 1178.01 1197.39 1180.1 1198.38C1182.2 1199.37 1184.3 1200.29 1186.4 1201.2C1187.1 1201.48 1187.76 1201.74 1188.46 1202.02C1189.88 1202.61 1191.37 1203.17 1192.81 1203.72C1193.63 1204.03 1194.4 1204.28 1195.22 1204.56C1196.6 1205.05 1197.99 1205.54 1199.35 1205.96C1200.19 1206.22 1201.01 1206.5 1201.86 1206.76C1203.25 1207.17 1204.64 1207.58 1206.06 1207.95C1206.86 1208.19 1207.66 1208.4 1208.48 1208.6C1210.02 1209 1211.59 1209.38 1213.15 1209.73C1213.8 1209.84 1214.46 1210.02 1215.11 1210.13C1219.56 1211.08 1224.05 1211.82 1228.56 1212.37C1229.22 1212.43 1229.92 1212.49 1230.59 1212.55C1232.15 1212.71 1233.75 1212.86 1235.35 1213.01C1236.17 1213.06 1236.93 1213.09 1237.74 1213.14C1239.24 1213.21 1240.74 1213.28 1242.24 1213.35C1243.04 1213.37 1243.87 1213.38 1244.67 1213.39C1246.19 1213.42 1247.7 1213.41 1249.21 1213.4C1249.99 1213.39 1250.78 1213.37 1251.53 1213.37C1253.21 1213.3 1254.92 1213.22 1256.58 1213.12C1257.17 1213.06 1257.76 1213.04 1258.36 1213.01C1260.67 1212.83 1262.98 1212.62 1265.26 1212.34C1265.29 1212.32 1265.33 1212.34 1265.37 1212.33C1267.58 1212.07 1269.8 1211.74 1272.01 1211.37C1272.7 1211.27 1273.4 1211.13 1274.07 1211.01C1275.21 1210.79 1276.35 1210.61 1277.48 1210.4C1277.91 1210.85 1278.38 1211.33 1278.81 1211.78C1280.68 1213.87 1282.66 1215.92 1284.62 1217.94C1285.48 1218.85 1286.33 1219.75 1287.2 1220.61C1290.08 1223.51 1293.02 1226.36 1296.05 1229.13C1296.6 1229.62 1297.16 1230.14 1297.71 1230.62C1298.16 1231.03 1298.61 1231.43 1299.1 1231.86C1299.54 1232.27 1300.03 1232.67 1300.51 1233.06Z" fill="#FFDE83"/>
</g>
<defs>
<clipPath id="clip0_1405_56">
<rect width="1821.79" height="1821.79" fill="white" transform="translate(0 610.928) rotate(-19.5936)"/>
</clipPath>
</defs>
</svg>
